<svg width="256" height="256" viewBox="0 0 256 256" fill="none" xmlns="http://www.w3.org/2000/svg">
<g clip-path="url(#clip0_560_2353)">
<path d="M50.2875 170.192L100.606 141.956L101.449 139.495L100.606 138.135H98.1457L89.7265 137.617L60.9734 136.839L36.0401 135.804L11.8843 134.509L5.79686 133.213L0.0976562 125.701L0.680056 121.945L5.79686 118.512L13.1142 119.161L29.3051 120.261L53.5899 121.945L71.2048 122.981L97.3041 125.701H101.449L102.032 124.017L100.606 122.981L99.5057 121.945L74.3792 104.913L47.1793 86.9088L32.9329 76.5472L25.2262 71.3013L21.3403 66.3797L19.6571 55.6299L26.6513 47.9232L36.0411 48.5707L38.4369 49.2181L47.9569 56.5355L68.2918 72.2731L94.8443 91.8315L98.7302 95.0688L100.284 93.968L100.478 93.1915L98.7291 90.2763L84.2875 64.1781L68.8742 37.6256L62.0102 26.6176L60.1969 20.0107C59.5494 17.2907 59.0961 15.0251 59.0961 12.24L67.0619 1.424L71.4641 0L82.0849 1.42507L86.5542 5.30987L93.159 20.4L103.845 44.1675L120.424 76.4832L125.281 86.0672L127.872 94.9397L128.842 97.6597H130.526V96.1056L131.886 77.9083L134.412 55.5648L136.873 26.8107L137.715 18.7157L141.73 9.0016L149.696 3.75573L155.912 6.73493L161.029 14.0523L160.316 18.7808L157.273 38.5323L151.315 69.488L147.429 90.2123H149.696L152.286 87.6213L162.777 73.6981L180.392 51.6789L188.164 42.9365L197.23 33.2875L203.059 28.6891H214.068L222.164 40.7349L218.537 53.1691L207.204 67.5456L197.813 79.7205L184.343 97.8539L175.924 112.361L176.701 113.526L178.709 113.331L209.146 106.857L225.595 103.876L245.218 100.509L254.09 104.654L255.061 108.863L251.564 117.476L230.583 122.657L205.973 127.579L169.318 136.257L168.865 136.581L169.383 137.229L185.897 138.783L192.956 139.171H210.247L242.434 141.568L250.852 147.136L255.904 153.937L255.061 159.118L242.109 165.724L224.624 161.579L183.824 151.865L169.836 148.367H167.893V149.533L179.55 160.931L200.921 180.229L227.668 205.098L229.028 211.25L225.595 216.108L221.969 215.589L198.46 197.909L189.394 189.943L168.865 172.653H167.505V174.466L172.232 181.395L197.23 218.957L198.525 230.484L196.712 234.24L190.236 236.507L183.112 235.212L168.476 214.683L153.387 191.563L141.212 170.839L139.722 171.682L132.533 249.071L129.166 253.021L121.395 256L114.919 251.078L111.486 243.113L114.919 227.376L119.064 206.847L122.432 190.527L125.475 170.256L127.288 163.521L127.159 163.068L125.669 163.262L110.386 184.245L87.1366 215.654L68.744 235.341L64.3409 237.09L56.6992 233.139L57.4107 226.08L61.6859 219.798L87.1366 187.418L102.485 167.343L112.394 155.75L112.328 154.066H111.746L44.135 197.974L32.0891 199.529L26.9083 194.671L27.5569 186.706L30.0177 184.115L50.3526 170.127L50.2875 170.192Z" fill="black"/>
</g>
<defs>
<clipPath id="clip0_560_2353">
<rect width="256" height="256" fill="white"/>
</clipPath>
</defs>
</svg>
