<svg width="256" height="256" viewBox="0 0 256 256" fill="none" xmlns="http://www.w3.org/2000/svg">
<g clip-path="url(#clip0_560_2358)">
<path d="M0 0H256V256H0V0Z" fill="black"/>
<path d="M28 208H124V224H28V208ZM24 66L31 59C32 61 35 63 37 63C40 63 42 61 42 57V32H53V57C53 62 52 66 49 69C46 71 43 73 39 73H38C33 73 28 71 24 67V66ZM58 32H90V41H69V48H88V56H69V62H90V72H58V32ZM106 42H94V32H129V42H117V72H106V42ZM28 88H47C51 87 55 89 58 91C60 93 61 95 61 98C61 102 58 105 54 107C59 108 62 112 62 117C62 124 57 128 47 128H28V88ZM50 100C50 98 48 97 45 97H39V104H44C48 104 50 103 50 100ZM46 111H39V119H46C49 119 51 118 51 115C51 113 50 112 47 112L46 111ZM89 128L81 116H77V128H66V88H84C88 87 93 89 97 92C99 94 100 97 100 101C100 107 97 112 92 114L100 125L116 88H126L143 128H131L129 121H113L110 128H89ZM121 101L116 112H125L121 101ZM83 97H77V107H83C87 107 89 105 89 102C89 99 87 97 83 97ZM145 88H156V128H145V88ZM160 88H171L185 109V88H196V128H186L171 106V128H160V88ZM198 122L204 114C208 117 212 119 217 119C220 119 221 118 221 116C221 115 221 114 218 113H215L214 112H212L210 111C204 110 200 107 200 100C200 93 205 87 215 87C221 87 227 89 231 93L226 100C223 98 219 96 215 96C212 96 211 97 211 99L214 102H216L218 103C227 105 233 108 233 115C233 123 227 128 218 128H217C210 128 204 126 199 123L198 122Z" fill="white"/>
</g>
<defs>
<clipPath id="clip0_560_2358">
<rect width="256" height="256" fill="white"/>
</clipPath>
</defs>
</svg>
