<svg width="256" height="256" viewBox="0 0 256 256" fill="none" xmlns="http://www.w3.org/2000/svg">
<path d="M173.632 21.3335C185.963 21.3335 195.957 31.2215 195.957 43.4135V176.757C196.043 178.8 196.918 180.731 198.398 182.141C199.879 183.552 201.849 184.333 203.893 184.32C205.936 184.33 207.904 183.548 209.382 182.137C210.859 180.727 211.733 178.799 211.819 176.757V97.0562C211.834 94.1706 212.418 91.3163 213.536 88.6562C214.655 85.9962 216.286 83.5825 218.337 81.5529C220.389 79.5234 222.82 77.9178 225.492 76.8278C228.163 75.7378 231.024 75.1847 233.909 75.2002C236.796 75.1847 239.657 75.7381 242.33 76.8288C245.002 77.9195 247.434 79.5261 249.485 81.5567C251.537 83.5874 253.168 86.0023 254.286 88.6636C255.403 91.3249 255.986 94.1803 256 97.0668V167.051C255.989 168.885 255.25 170.64 253.946 171.93C252.642 173.22 250.88 173.939 249.045 173.931C248.136 173.936 247.235 173.763 246.393 173.42C245.551 173.078 244.785 172.572 244.138 171.933C243.491 171.295 242.976 170.535 242.623 169.697C242.27 168.859 242.086 167.96 242.08 167.051V97.0668C242.074 95.9995 241.859 94.9436 241.445 93.9596C241.031 92.9756 240.428 92.0827 239.669 91.3319C238.911 90.5811 238.011 89.9871 237.023 89.5838C236.035 89.1806 234.977 88.9759 233.909 88.9815C232.842 88.9759 231.784 89.1806 230.796 89.5838C229.807 89.9871 228.908 90.5811 228.149 91.3319C227.391 92.0827 226.787 92.9756 226.374 93.9596C225.96 94.9436 225.744 95.9995 225.739 97.0668V176.768C225.723 179.622 225.146 182.444 224.04 185.074C222.934 187.705 221.32 190.091 219.292 192.098C217.263 194.105 214.859 195.692 212.217 196.77C209.575 197.848 206.747 198.394 203.893 198.379C201.04 198.394 198.212 197.848 195.569 196.77C192.927 195.692 190.523 194.105 188.495 192.098C186.466 190.091 184.853 187.705 183.747 185.074C182.641 182.444 182.063 179.622 182.048 176.768V43.4348C181.96 41.2682 181.034 39.2204 179.466 37.7223C177.899 36.2242 175.811 35.3927 173.643 35.4028C171.474 35.3899 169.385 36.2187 167.816 37.7148C166.246 39.2109 165.318 41.2576 165.227 43.4242L165.216 213.067C165.182 218.828 162.862 224.339 158.765 228.39C154.669 232.44 149.131 234.698 143.371 234.667C140.517 234.682 137.689 234.136 135.047 233.058C132.405 231.98 130.001 230.393 127.972 228.386C125.944 226.379 124.33 223.993 123.224 221.362C122.118 218.732 121.541 215.91 121.525 213.056V192.427C121.525 188.63 124.64 185.547 128.48 185.547C132.32 185.547 135.435 188.63 135.435 192.427V213.056C135.435 215.862 136.949 218.453 139.403 219.861C141.856 221.259 144.885 221.259 147.339 219.861C148.542 219.179 149.544 218.19 150.241 216.994C150.938 215.799 151.306 214.44 151.307 213.056V43.4135C151.307 31.2215 161.301 21.3335 173.632 21.3335ZM113.109 21.3335C125.44 21.3335 135.435 31.2215 135.435 43.4135V166.326C135.43 167.234 135.247 168.133 134.895 168.971C134.543 169.808 134.03 170.568 133.384 171.207C132.738 171.846 131.972 172.352 131.131 172.695C130.289 173.038 129.389 173.211 128.48 173.206C127.571 173.211 126.671 173.038 125.829 172.695C124.988 172.352 124.222 171.846 123.576 171.207C122.93 170.568 122.417 169.808 122.065 168.971C121.713 168.133 121.53 167.234 121.525 166.326V43.4135C121.511 41.1946 120.617 39.072 119.039 37.512C117.461 35.952 115.328 35.0821 113.109 35.0935C110.89 35.0821 108.758 35.952 107.18 37.512C105.602 39.072 104.707 41.1946 104.693 43.4135V192.885C104.659 198.71 102.315 204.282 98.1746 208.378C94.0344 212.474 88.4374 214.759 82.6133 214.731C76.7875 214.762 71.1877 212.478 67.0451 208.382C62.9026 204.285 60.5565 198.711 60.5227 192.885V97.0668C60.5171 95.9995 60.3013 94.9436 59.8877 93.9596C59.474 92.9756 58.8706 92.0827 58.1119 91.3319C57.3532 90.5811 56.454 89.9871 55.4657 89.5838C54.4774 89.1806 53.4194 88.9759 52.352 88.9815C51.2846 88.9759 50.2266 89.1806 49.2383 89.5838C48.25 89.9871 47.3508 90.5811 46.5921 91.3319C45.8334 92.0827 45.23 92.9756 44.8163 93.9596C44.4027 94.9436 44.1869 95.9995 44.1813 97.0668V137.6C44.166 140.486 43.5824 143.34 42.4639 146C41.3454 148.66 39.7139 151.074 37.6626 153.103C35.6113 155.133 33.1803 156.739 30.5085 157.829C27.8366 158.919 24.9763 159.472 22.0907 159.456C19.2051 159.472 16.3447 158.919 13.6729 157.829C11.001 156.739 8.57003 155.133 6.51872 153.103C4.4674 151.074 2.83592 148.66 1.71744 146C0.598954 143.34 0.0153674 140.486 0 137.6L0 122.902C0 119.094 3.11467 116.011 6.95467 116.011C10.7947 116.011 13.92 119.104 13.92 122.902V137.6C13.92 142.059 17.5787 145.675 22.0907 145.675C26.6027 145.675 30.2613 142.059 30.2613 137.6V97.0562C30.2952 91.2322 32.6398 85.6598 36.78 81.5636C40.9202 77.4674 46.5173 75.1825 52.3413 75.2108C58.1672 75.1796 63.767 77.4633 67.9095 81.5598C72.052 85.6563 74.3981 91.2303 74.432 97.0562V192.885C74.432 197.355 78.0907 200.971 82.6133 200.971C87.1253 200.971 90.784 197.355 90.784 192.885V43.4135C90.784 31.2215 100.779 21.3335 113.109 21.3335Z" fill="black"/>
</svg>
