<svg width="256" height="256" viewBox="0 0 256 256" fill="none" xmlns="http://www.w3.org/2000/svg">
<path d="M233.023 0C238.463 0 243.68 2.16108 247.527 6.00783C251.374 9.85457 253.535 15.0719 253.535 20.512C253.535 25.9521 251.374 31.1694 247.527 35.0162C243.68 38.8629 238.463 41.024 233.023 41.024H214.932C214.615 41.0254 214.3 40.9641 214.006 40.8436C213.713 40.723 213.446 40.5457 213.221 40.3217C212.996 40.0977 212.817 39.8315 212.695 39.5383C212.573 39.2452 212.511 38.9308 212.511 38.6133V20.512C212.511 9.184 221.695 0 233.023 0Z" fill="black"/>
<path d="M118.027 119.456L195.435 42.656C196.896 41.2054 196.075 38.2827 194.197 38.2827H152.533C152.3 38.2854 152.069 38.3349 151.854 38.4283C151.64 38.5218 151.446 38.6572 151.285 38.8267L67.872 121.557C66.5707 122.837 64.6507 121.696 64.6507 119.648V40.7467C64.6507 39.392 63.7653 38.2934 62.6773 38.2934H33.984C32.8853 38.2934 32 39.392 32 40.7467V210.88C32 212.245 32.8853 213.333 33.984 213.333H62.6773C63.776 213.333 64.6613 212.245 64.6613 210.88V176.213C64.6613 175.477 64.928 174.773 65.3973 174.315L91.2533 148.651C91.528 148.355 91.8998 148.167 92.3011 148.122C92.7024 148.077 93.1066 148.178 93.44 148.405L162.603 199.307C173.587 206.79 186.229 211.487 199.435 212.992C200.587 213.12 201.568 211.979 201.568 210.539V177.899C201.568 176.651 200.821 175.637 199.819 175.477C192.068 174.225 184.688 171.287 178.197 166.869L118.325 123.52C117.077 122.688 116.917 120.544 118.027 119.456Z" fill="black"/>
</svg>
