<svg preserveAspectRatio="none" width="100%" height="100%" overflow="visible" style="display: block;" viewBox="0 0 64.0013 47.0938" fill="none" xmlns="http://www.w3.org/2000/svg">
<path id="Vector" d="M63.3279 3.95135C62.6505 3.62068 62.3572 4.25268 61.9625 4.57535C61.8265 4.67935 61.7119 4.81535 61.5972 4.93802C60.6052 5.99668 59.4479 6.69002 57.9359 6.60735C55.7252 6.48468 53.8372 7.17802 52.1679 8.86868C51.8132 6.78335 50.6345 5.54068 48.8425 4.74068C47.9039 4.32468 46.9545 3.91135 46.2959 3.00735C45.8372 2.36468 45.7119 1.64735 45.4825 0.94335C45.3359 0.516683 45.1892 0.082016 44.7012 0.010016C44.1679 -0.0726506 43.9599 0.372683 43.7519 0.746016C42.9172 2.27135 42.5945 3.95135 42.6265 5.65268C42.6985 9.48202 44.3145 12.5327 47.5279 14.7007C47.8932 14.9487 47.9865 15.1993 47.8719 15.562C47.6532 16.3087 47.3919 17.034 47.1625 17.7833C47.0159 18.2607 46.7972 18.362 46.2852 18.1567C44.5552 17.4132 42.9838 16.345 41.6559 15.01C39.3705 12.802 37.3065 10.3647 34.7305 8.45535C34.1337 8.01433 33.5208 7.59538 32.8932 7.19935C30.2665 4.64735 33.2399 2.55135 33.9279 2.30335C34.6479 2.04202 34.1759 1.15135 31.8505 1.16202C29.5252 1.17268 27.3972 1.94868 24.6852 2.98602C24.2822 3.14045 23.8676 3.26261 23.4452 3.35135C20.9109 2.87384 18.3189 2.78214 15.7572 3.07935C10.7305 3.63935 6.7172 6.01802 3.7652 10.074C0.218532 14.9487 -0.616134 20.49 0.405199 26.266C1.47987 32.3567 4.5892 37.3993 9.3652 41.3407C14.3199 45.4287 20.0239 47.4313 26.5332 47.0473C30.4852 46.8207 34.8879 46.29 39.8505 42.0873C41.1039 42.7113 42.4159 42.9593 44.5972 43.146C46.2772 43.3033 47.8932 43.066 49.1439 42.8047C51.1039 42.3887 50.9679 40.5727 50.2612 40.242C44.5145 37.5647 45.7759 38.6553 44.6265 37.7727C47.5492 34.3167 51.9492 30.7273 53.6719 19.098C53.8052 18.1727 53.6905 17.5913 53.6719 16.8447C53.6612 16.3913 53.7652 16.2127 54.2852 16.162C55.728 16.0123 57.1275 15.5821 58.4052 14.8953C62.1279 12.8607 63.6319 9.52202 63.9865 5.51668C64.0399 4.90335 63.9759 4.27402 63.3279 3.95135ZM30.8825 39.9993C25.3119 35.6207 22.6105 34.178 21.4959 34.2393C20.4505 34.3033 20.6399 35.4953 20.8692 36.274C21.1092 37.042 21.4212 37.57 21.8585 38.2447C22.1625 38.69 22.3705 39.354 21.5572 39.8527C19.7625 40.962 16.6452 39.4793 16.4985 39.4073C12.8692 37.2687 9.83187 34.4473 7.69587 30.5887C5.63187 26.874 4.43187 22.89 4.23453 18.6367C4.1812 17.6073 4.48253 17.2447 5.50653 17.058C6.85083 16.8008 8.2282 16.7656 9.58387 16.954C15.2692 17.786 20.1065 20.3273 24.1652 24.3513C26.4799 26.6447 28.2319 29.3833 30.0372 32.0607C31.9572 34.9033 34.0212 37.6127 36.6505 39.8313C37.5785 40.61 38.3172 41.202 39.0265 41.6367C36.8879 41.8767 33.3199 41.93 30.8825 39.9993ZM33.5492 22.826C33.5487 22.6935 33.5805 22.563 33.6418 22.4455C33.7031 22.3281 33.7921 22.2274 33.9011 22.152C34.01 22.0767 34.1357 22.029 34.2672 22.0131C34.3987 21.9972 34.5321 22.0135 34.6559 22.0607C34.8136 22.1173 34.9498 22.2217 35.0454 22.3594C35.141 22.497 35.1913 22.6611 35.1892 22.8287C35.1896 22.937 35.1684 23.0442 35.1269 23.1443C35.0853 23.2443 35.0243 23.335 34.9474 23.4112C34.8704 23.4874 34.7791 23.5475 34.6787 23.5881C34.5783 23.6286 34.4708 23.6488 34.3625 23.6473C34.2551 23.6477 34.1486 23.6266 34.0494 23.5854C33.9502 23.5441 33.8602 23.4834 33.7847 23.4069C33.7092 23.3305 33.6497 23.2397 33.6097 23.1399C33.5698 23.0402 33.5474 22.9335 33.5492 22.826ZM41.8425 27.082C41.3092 27.298 40.7785 27.4847 40.2692 27.5087C39.5029 27.5354 38.751 27.2961 38.1412 26.8313C37.4105 26.218 36.8879 25.8767 36.6692 24.81C36.5938 24.2887 36.6082 23.7584 36.7119 23.242C36.8985 22.37 36.6905 21.81 36.0745 21.3033C35.5759 20.8873 34.9385 20.7727 34.2399 20.7727C34.0007 20.7588 33.7683 20.6874 33.5625 20.5647C33.2692 20.4207 33.0292 20.058 33.2585 19.61C33.3332 19.466 33.6852 19.114 33.7705 19.05C34.7199 18.5113 35.8159 18.6873 36.8265 19.0927C37.7652 19.4767 38.4745 20.1807 39.4959 21.178C40.5385 22.3807 40.7279 22.714 41.3225 23.6153C41.7919 24.322 42.2185 25.0473 42.5092 25.8767C42.6879 26.3967 42.4585 26.8207 41.8425 27.082Z" fill="var(--fill-0, white)"/>
</svg>
