<svg width="256" height="256" viewBox="0 0 256 256" fill="none" xmlns="http://www.w3.org/2000/svg">
<g clip-path="url(#clip0_560_2363)">
<path fill-rule="evenodd" clip-rule="evenodd" d="M10.2187 169.984C11.4828 169.983 12.6984 170.471 13.6109 171.345C14.5235 172.22 15.0623 173.414 15.1147 174.677V203.786C15.0326 205.029 14.4811 206.194 13.5719 207.045C12.6628 207.896 11.464 208.37 10.2187 208.37C8.97331 208.37 7.77455 207.896 6.8654 207.045C5.95625 206.194 5.40474 205.029 5.32267 203.786V174.677C5.37499 173.414 5.91383 172.22 6.8264 171.345C7.73897 170.471 8.95453 169.983 10.2187 169.984ZM61.568 148.277C62.281 148.13 63.0179 148.143 63.7251 148.316C64.4323 148.489 65.0922 148.817 65.657 149.277C66.2217 149.736 66.677 150.316 66.9901 150.973C67.3031 151.63 67.4659 152.349 67.4667 153.077V203.786C67.4667 205.085 66.9508 206.33 66.0327 207.248C65.1145 208.167 63.8692 208.682 62.5707 208.682C61.2722 208.682 60.0268 208.167 59.1087 207.248C58.1905 206.33 57.6747 205.085 57.6747 203.786V165.12L39.8933 183.488C39.4468 183.959 38.9114 184.338 38.3179 184.602C37.7245 184.866 37.0848 185.01 36.4355 185.026C35.7862 185.042 35.1402 184.929 34.5346 184.694C33.929 184.46 33.3757 184.108 32.9067 183.658C32.6432 183.394 32.4106 183.101 32.2133 182.784L6.69867 156.48C5.89943 155.532 5.48984 154.315 5.55263 153.077C5.61542 151.838 6.1459 150.669 7.03694 149.807C7.92798 148.944 9.11318 148.452 10.3531 148.429C11.5931 148.407 12.7955 148.856 13.7173 149.685L36.3733 173.013L59.0613 149.674C59.7404 148.973 60.6131 148.49 61.568 148.288V148.277ZM83.6267 148.32C84.897 148.325 86.116 148.822 87.0272 149.707C87.9383 150.593 88.4706 151.797 88.512 153.066V203.786C88.5064 205.08 87.9899 206.32 87.0749 207.235C86.16 208.15 84.9206 208.666 83.6267 208.672C82.3319 208.669 81.0909 208.153 80.1753 207.238C79.2598 206.322 78.7441 205.081 78.7413 203.786V153.066C78.7801 151.796 79.3115 150.59 80.2233 149.704C81.135 148.819 82.3555 148.322 83.6267 148.32ZM104.672 169.802C105.968 169.802 107.211 170.315 108.13 171.228C109.05 172.142 109.57 173.381 109.579 174.677V203.786C109.573 204.753 109.283 205.696 108.743 206.498C108.204 207.3 107.439 207.925 106.546 208.294C105.653 208.663 104.67 208.76 103.722 208.573C102.774 208.386 101.902 207.923 101.216 207.242C100.302 206.324 99.7882 205.082 99.7867 203.786V174.677C99.7923 173.383 100.309 172.144 101.224 171.229C102.139 170.314 103.378 169.808 104.672 169.802ZM104.693 147.989C105.36 148.015 106.014 148.176 106.616 148.464C107.218 148.752 107.754 149.161 108.192 149.664L130.88 173.024L153.547 149.664C154.227 148.982 155.093 148.515 156.037 148.323C156.981 148.131 157.961 148.222 158.854 148.584C159.747 148.946 160.513 149.563 161.056 150.359C161.6 151.154 161.897 152.092 161.909 153.056V203.786C161.904 205.075 161.392 206.309 160.484 207.224C159.576 208.138 158.344 208.658 157.056 208.672C155.762 208.666 154.523 208.15 153.608 207.235C152.693 206.32 152.176 205.08 152.171 203.786V165.12L134.389 183.498C133.481 184.428 132.24 184.96 130.94 184.976C129.64 184.992 128.387 184.491 127.456 183.584L127.403 183.53C127.403 183.509 127.381 183.509 127.36 183.498L101.173 156.469C100.685 156.017 100.294 155.469 100.024 154.861C99.7546 154.253 99.6113 153.596 99.6033 152.93C99.5953 152.265 99.7228 151.604 99.9781 150.99C100.233 150.375 100.611 149.819 101.088 149.354C101.566 148.896 102.132 148.538 102.751 148.304C103.371 148.069 104.031 147.962 104.693 147.989ZM177.195 160.853C178.109 160.608 179.074 160.633 179.975 160.924C180.875 161.215 181.672 161.761 182.27 162.495C182.867 163.229 183.24 164.12 183.342 165.061C183.445 166.001 183.273 166.952 182.848 167.797C180.67 171.774 179.84 176.351 180.482 180.839C181.125 185.328 183.205 189.488 186.41 192.695C189.616 195.902 193.775 197.983 198.264 198.627C202.752 199.271 207.329 198.443 211.307 196.266C212.445 195.65 213.779 195.505 215.023 195.865C216.266 196.224 217.318 197.058 217.952 198.186C218.577 199.326 218.725 200.666 218.363 201.914C218.001 203.161 217.159 204.215 216.021 204.842C211.51 207.318 206.447 208.613 201.301 208.608L199.787 208.565C194.575 208.327 189.509 206.765 185.068 204.027C180.627 201.288 176.956 197.464 174.402 192.914C171.848 188.365 170.495 183.24 170.47 178.022C170.446 172.805 171.75 167.667 174.261 163.093C174.909 161.996 175.967 161.193 177.195 160.853ZM186.411 150.922C192.245 147.728 198.958 146.511 205.543 147.454C212.127 148.396 218.229 151.448 222.933 156.151C227.637 160.854 230.69 166.955 231.635 173.539C232.579 180.123 231.363 186.836 228.171 192.672C227.751 193.443 227.131 194.088 226.377 194.538C225.622 194.988 224.761 195.228 223.883 195.232L223.275 195.189C222.66 195.106 222.066 194.907 221.525 194.602C220.392 193.977 219.552 192.928 219.188 191.685C218.824 190.442 218.967 189.106 219.584 187.968C221.76 183.989 222.589 179.412 221.946 174.923C221.302 170.433 219.222 166.273 216.015 163.066C212.809 159.858 208.65 157.776 204.161 157.131C199.672 156.486 195.094 157.313 191.115 159.488C190.55 159.847 189.917 160.086 189.256 160.191C188.595 160.296 187.92 160.264 187.272 160.098C186.623 159.932 186.016 159.634 185.487 159.224C184.958 158.813 184.519 158.299 184.197 157.712C183.875 157.126 183.677 156.479 183.614 155.813C183.552 155.147 183.626 154.475 183.834 153.838C184.041 153.202 184.377 152.615 184.82 152.113C185.263 151.612 185.805 151.207 186.411 150.922ZM102.293 67.9252C118.091 67.9252 120.384 80.7465 120.384 85.5678V113.813H110.603V109.205C107.829 112.896 102.155 114.912 96.096 114.912C94.6773 114.912 82.3467 114.592 81.3333 102.794C80.4587 92.8532 88.5333 85.6212 103.232 85.6212H110.603C110.603 79.6158 106.688 76.1705 100.117 76.1705C95.424 76.3092 90.9013 78.0265 87.3173 81.0558L83.4773 73.9732C88.64 69.9305 94.272 67.9252 102.293 67.9252ZM149.515 68.9918C162.987 68.9918 171.723 79.3385 171.733 91.9252C171.733 104.522 162.944 114.901 149.515 114.901C136.075 114.901 127.285 104.533 127.285 91.9465C127.285 79.3598 136.032 68.9918 149.515 68.9918ZM222.059 69.1518C229.312 69.1518 234.88 74.1118 234.827 85.6638V113.845H225.067V88.4265C225.067 85.0985 225.045 77.9732 218.347 77.9732C211.648 77.9732 211.648 85.0878 211.648 86.9118V113.834H202.155V86.9118C202.155 85.0985 202.144 77.9732 195.435 77.9732C188.736 77.9732 188.736 85.0985 188.736 88.4265V113.845H178.955V70.8585H188.736V74.6665C189.885 73.0363 191.394 71.6921 193.145 70.7377C194.897 69.7834 196.844 69.2444 198.837 69.1625C203.083 69.1625 206.944 71.2212 209.312 76.4798C210.558 74.2053 212.407 72.3186 214.656 71.0276C216.905 69.7365 219.466 69.0911 222.059 69.1625V69.1518ZM29.0667 78.4532L44.608 59.5518H56.7467L35.3173 86.0798L58.144 113.834H45.2267L29.0667 93.8238L12.9067 113.834H0L22.8053 86.0798L1.38667 59.5518H13.5253L29.0773 78.4532H29.0667ZM73.3227 113.834H63.552V70.8692H73.3227V113.834ZM254.549 113.834H244.779V70.8692H254.549V113.834ZM105.867 92.9065C94.6133 92.9065 91.3707 97.3012 91.7227 100.821C92.064 104.33 95.1787 106.549 99.7973 106.549C102.584 106.555 105.264 105.484 107.28 103.56C109.295 101.636 110.49 99.0074 110.613 96.2238L110.635 92.9172H105.867V92.9065ZM149.525 77.8665C142.453 77.8665 136.896 83.0612 136.896 91.9465C136.896 100.821 142.443 106.026 149.525 106.026C156.587 106.026 162.133 100.8 162.133 91.9465C162.133 83.0718 156.587 77.8665 149.525 77.8665ZM68.448 53.3438C69.2732 53.3159 70.0955 53.457 70.8642 53.7585C71.633 54.0599 72.332 54.5153 72.9184 55.0966C73.5047 55.678 73.9661 56.3731 74.274 57.1392C74.582 57.9054 74.7302 58.7264 74.7093 59.5518C74.6426 61.1691 73.9532 62.698 72.7852 63.8187C71.6173 64.9394 70.0613 65.5652 68.4427 65.5652C66.824 65.5652 65.268 64.9394 64.1001 63.8187C62.9322 62.698 62.2427 61.1691 62.176 59.5518C62.1567 58.7254 62.3062 57.9037 62.6152 57.137C62.9243 56.3702 63.3865 55.6746 63.9735 55.0926C64.5606 54.5105 65.2601 54.0543 66.0295 53.7518C66.7988 53.4493 67.6217 53.3175 68.448 53.3438ZM249.685 53.3438C250.514 53.3116 251.341 53.4493 252.114 53.7485C252.888 54.0477 253.592 54.5021 254.184 55.0836C254.775 55.6651 255.242 56.3615 255.554 57.1299C255.866 57.8983 256.018 58.7226 256 59.5518C255.907 61.1493 255.206 62.6506 254.042 63.7486C252.878 64.8466 251.339 65.4582 249.739 65.4582C248.139 65.4582 246.599 64.8466 245.435 63.7486C244.271 62.6506 243.571 61.1493 243.477 59.5518C243.449 58.3152 243.798 57.0993 244.478 56.0663C245.159 55.0333 246.138 54.2324 247.285 53.7705C248.048 53.4683 248.865 53.3232 249.685 53.3438Z" fill="black"/>
</g>
<defs>
<clipPath id="clip0_560_2363">
<rect width="256" height="256" fill="white"/>
</clipPath>
</defs>
</svg>
