<svg width="256" height="256" viewBox="0 0 256 256" fill="none" xmlns="http://www.w3.org/2000/svg">
<g clip-path="url(#clip0_560_2352)">
<path d="M122.254 3.94147C124.221 -1.37723 131.772 -1.29189 133.619 4.06905L138.778 19.0424C146.484 41.4101 159.097 61.7705 175.691 78.6324C192.286 95.4943 212.442 108.431 234.684 116.493L251.325 122.525C256.62 124.445 256.631 131.93 251.342 133.865L234.662 139.97C213.024 147.888 193.372 160.425 177.072 176.709C160.771 192.993 148.214 212.633 140.274 234.262L133.746 252.045C131.814 257.308 124.377 257.322 122.425 252.067L115.608 233.709C107.636 212.237 95.107 192.746 78.8842 176.577C62.6613 160.408 43.129 147.944 21.6304 140.043L4.6502 133.803C-0.609876 131.869 -0.623668 124.435 4.62865 122.483L21.9407 116.046C43.3496 108.087 62.7868 95.597 78.9231 79.4317C95.0594 63.2664 107.514 43.8068 115.435 22.3836L122.254 3.94147Z" fill="black"/>
</g>
<defs>
<clipPath id="clip0_560_2352">
<rect width="256" height="256" fill="white"/>
</clipPath>
</defs>
</svg>
