<svg width="256" height="256" viewBox="0 0 256 256" fill="none" xmlns="http://www.w3.org/2000/svg">
<path d="M227.921 98.6834C223.746 58.046 200.207 6.08774 138.634 4H134.091C90.1306 4 57.3737 36.1688 50.5224 80.9082C46.5821 94.5226 46.9056 111.475 43.377 132.543C39.7308 154.45 32.5266 162.286 27.5425 175.121C24.7785 182.634 25.7929 200.968 43.4799 202.541C53.2276 203.409 65.4159 198.454 65.5776 196.719C62.2696 203.467 58.1088 215.597 58.5499 225.859C59.432 242.973 71.3556 252 89.7924 252C110.479 252 125.225 239.65 134.37 234.151C138.796 245.59 144.559 252 155.556 252C174.699 252 195.944 232.696 205.309 217.332C221.761 188.589 232.156 154.994 229.083 112.474C228.965 108.255 228.568 103.535 227.921 98.6834Z" fill="black"/>
<path d="M138.533 73.3216C127.829 72.5277 126.991 85.6128 126.991 93.9785C126.991 102.918 129.344 113.297 138.694 113.297C148.398 113.297 151.809 101.418 151.809 93.9785C151.809 85.8039 149.471 73.3216 138.533 73.3216Z" fill="white"/>
<path d="M181.61 73.3217C170.922 72.5278 168.878 84.4808 168.878 93.9786C168.878 102.535 171.098 113.298 180.743 113.298C191.593 113.298 193.725 99.2274 193.725 93.9786C193.725 85.3189 190.77 73.3217 181.61 73.3217Z" fill="white"/>
</svg>
