<svg preserveAspectRatio="none" width="100%" height="100%" overflow="visible" style="display: block;" viewBox="0 0 64.0004 38.8358" fill="none" xmlns="http://www.w3.org/2000/svg">
<path id="Vector" fill-rule="evenodd" clip-rule="evenodd" d="M2.55467 29.1611C2.8707 29.1609 3.17459 29.2829 3.40273 29.5015C3.63088 29.7202 3.76558 30.0187 3.77867 30.3345V37.6118C3.75815 37.9225 3.62027 38.2137 3.39298 38.4265C3.16569 38.6393 2.866 38.7576 2.55467 38.7576C2.24333 38.7576 1.94364 38.6393 1.71635 38.4265C1.48906 38.2137 1.35118 37.9225 1.33067 37.6118V30.3345C1.34375 30.0187 1.47846 29.7202 1.7066 29.5015C1.93474 29.2829 2.23863 29.1609 2.55467 29.1611ZM15.392 23.7345C15.5703 23.6977 15.7545 23.701 15.9313 23.7442C16.1081 23.7875 16.2731 23.8695 16.4142 23.9844C16.5554 24.0992 16.6693 24.2441 16.7475 24.4084C16.8258 24.5728 16.8665 24.7525 16.8667 24.9345V37.6118C16.8667 37.9364 16.7377 38.2478 16.5082 38.4773C16.2786 38.7069 15.9673 38.8358 15.6427 38.8358C15.318 38.8358 15.0067 38.7069 14.7772 38.4773C14.5476 38.2478 14.4187 37.9364 14.4187 37.6118V27.9451L9.97333 32.5371C9.86169 32.655 9.72784 32.7497 9.57948 32.8157C9.43113 32.8817 9.27119 32.9177 9.10887 32.9217C8.94655 32.9256 8.78505 32.8975 8.63365 32.8388C8.48224 32.7801 8.34393 32.6921 8.22667 32.5798C8.16079 32.5137 8.10264 32.4404 8.05333 32.3611L1.67467 25.7851C1.47486 25.5481 1.37246 25.244 1.38816 24.9344C1.40385 24.6247 1.53648 24.3326 1.75924 24.1169C1.982 23.9013 2.27829 23.7782 2.58829 23.7725C2.89828 23.7669 3.19886 23.8791 3.42933 24.0865L9.09333 29.9185L14.7653 24.0838C14.9351 23.9085 15.1533 23.7878 15.392 23.7371V23.7345ZM20.9067 23.7451C21.2243 23.7464 21.529 23.8707 21.7568 24.092C21.9846 24.3133 22.1176 24.6144 22.128 24.9318V37.6118C22.1266 37.9353 21.9975 38.2451 21.7687 38.4739C21.54 38.7026 21.2302 38.8317 20.9067 38.8331C20.583 38.8324 20.2727 38.7035 20.0438 38.4746C19.8149 38.2458 19.686 37.9355 19.6853 37.6118V24.9318C19.695 24.6142 19.8279 24.3127 20.0558 24.0913C20.2837 23.8698 20.5889 23.7457 20.9067 23.7451ZM26.168 29.1158C26.4919 29.1158 26.8027 29.2439 27.0326 29.4723C27.2624 29.7006 27.3926 30.0105 27.3947 30.3345V37.6118C27.3933 37.8534 27.3207 38.0893 27.1858 38.2898C27.0509 38.4903 26.8598 38.6465 26.6365 38.7387C26.4132 38.831 26.1676 38.8553 25.9305 38.8085C25.6935 38.7618 25.4755 38.646 25.304 38.4758C25.0755 38.2463 24.947 37.9357 24.9467 37.6118V30.3345C24.9481 30.011 25.0772 29.7012 25.3059 29.4724C25.5347 29.2437 25.8445 29.1172 26.168 29.1158ZM26.1733 23.6625C26.34 23.6688 26.5036 23.7093 26.654 23.7813C26.8044 23.8533 26.9385 23.9553 27.048 24.0811L32.72 29.9211L38.3867 24.0811C38.5567 23.9106 38.7733 23.794 39.0093 23.746C39.2454 23.6979 39.4903 23.7206 39.7135 23.8111C39.9367 23.9016 40.1282 24.056 40.2641 24.2549C40.4 24.4538 40.4741 24.6883 40.4773 24.9291V37.6118C40.4759 37.9339 40.3479 38.2426 40.1209 38.4711C39.8939 38.6996 39.5861 38.8296 39.264 38.8331C38.9405 38.8317 38.6307 38.7026 38.4019 38.4739C38.1732 38.2451 38.0441 37.9353 38.0427 37.6118V27.9451L33.5973 32.5398C33.3702 32.7723 33.0601 32.9051 32.7351 32.9091C32.4101 32.9131 32.0968 32.7879 31.864 32.5611L31.8507 32.5478C31.8507 32.5425 31.8453 32.5425 31.84 32.5398L25.2933 25.7825C25.1713 25.6693 25.0736 25.5326 25.0061 25.3805C24.9386 25.2283 24.9028 25.0641 24.9008 24.8977C24.8988 24.7313 24.9307 24.5663 24.9945 24.4126C25.0583 24.2589 25.1527 24.1198 25.272 24.0038C25.3915 23.8891 25.5329 23.7998 25.6878 23.7411C25.8427 23.6825 26.0078 23.6557 26.1733 23.6625ZM44.2987 26.8785C44.5272 26.8173 44.7686 26.8234 44.9937 26.8962C45.2188 26.9691 45.418 27.1054 45.5674 27.2889C45.7168 27.4724 45.8099 27.6951 45.8355 27.9303C45.8612 28.1655 45.8183 28.4031 45.712 28.6145C45.1675 29.6088 44.96 30.7528 45.1206 31.875C45.2811 32.9972 45.8011 34.0372 46.6026 34.8389C47.404 35.6407 48.4438 36.161 49.5659 36.322C50.688 36.483 51.8321 36.2759 52.8267 35.7318C53.1111 35.5776 53.4448 35.5415 53.7557 35.6314C54.0665 35.7212 54.3296 35.9297 54.488 36.2118C54.6442 36.4966 54.6812 36.8317 54.5907 37.1436C54.5002 37.4555 54.2897 37.7189 54.0053 37.8758C52.8776 38.4946 51.6117 38.8184 50.3253 38.8171L49.9467 38.8065C48.6436 38.7469 47.3773 38.3564 46.2669 37.6719C45.1566 36.9873 44.239 36.0312 43.6005 34.8938C42.962 33.7564 42.6237 32.4751 42.6176 31.1707C42.6114 29.8663 42.9376 28.5819 43.5653 27.4385C43.7272 27.1642 43.9918 26.9635 44.2987 26.8785ZM46.6027 24.3958C48.0613 23.5972 49.7395 23.293 51.3857 23.5286C53.0318 23.7643 54.5573 24.5271 55.7333 25.7029C56.9093 26.8786 57.6726 28.4038 57.9086 30.0499C58.1447 31.696 57.8409 33.3743 57.0427 34.8331C56.9376 35.026 56.7827 35.1872 56.5942 35.2997C56.4056 35.4123 56.1903 35.4722 55.9707 35.4731L55.8187 35.4625C55.6649 35.4418 55.5165 35.392 55.3813 35.3158C55.0979 35.1593 54.8879 34.8972 54.797 34.5865C54.7061 34.2758 54.7417 33.9417 54.896 33.6571C55.4401 32.6624 55.6472 31.5182 55.4864 30.3959C55.3255 29.2735 54.8054 28.2335 54.0038 27.4317C53.2022 26.6298 52.1624 26.1092 51.0402 25.948C49.9179 25.7867 48.7736 25.9934 47.7787 26.5371C47.6374 26.6269 47.4793 26.6867 47.3141 26.713C47.1488 26.7392 46.98 26.7313 46.8179 26.6897C46.6558 26.6481 46.504 26.5737 46.3718 26.4711C46.2396 26.3685 46.1299 26.2399 46.0493 26.0933C45.9688 25.9466 45.9192 25.785 45.9035 25.6184C45.8879 25.4518 45.9066 25.2838 45.9584 25.1247C46.0103 24.9657 46.0942 24.8189 46.205 24.6935C46.3158 24.5682 46.4512 24.4668 46.6027 24.3958ZM25.5733 3.64648C29.5227 3.64648 30.096 6.85181 30.096 8.05715V15.1185H27.6507V13.9665C26.9573 14.8891 25.5387 15.3931 24.024 15.3931C23.6693 15.3931 20.5867 15.3131 20.3333 12.3638C20.1147 9.87848 22.1333 8.07048 25.808 8.07048H27.6507C27.6507 6.56915 26.672 5.70781 25.0293 5.70781C23.856 5.74248 22.7253 6.17181 21.8293 6.92915L20.8693 5.15848C22.16 4.14781 23.568 3.64648 25.5733 3.64648ZM37.3787 3.91315C40.7467 3.91315 42.9307 6.49981 42.9333 9.64648C42.9333 12.7958 40.736 15.3905 37.3787 15.3905C34.0187 15.3905 31.8213 12.7985 31.8213 9.65181C31.8213 6.50515 34.008 3.91315 37.3787 3.91315ZM55.5147 3.95315C57.328 3.95315 58.72 5.19315 58.7067 8.08115V15.1265H56.2667V8.77181C56.2667 7.93981 56.2613 6.15848 54.5867 6.15848C52.912 6.15848 52.912 7.93715 52.912 8.39315V15.1238H50.5387V8.39315C50.5387 7.93981 50.536 6.15848 48.8587 6.15848C47.184 6.15848 47.184 7.93981 47.184 8.77181V15.1265H44.7387V4.37981H47.184V5.33181C47.4713 4.92426 47.8485 4.58821 48.2864 4.34962C48.7242 4.11104 49.2111 3.9763 49.7093 3.95581C50.7707 3.95581 51.736 4.47048 52.328 5.78515C52.6394 5.21652 53.1017 4.74485 53.6639 4.42208C54.2262 4.09932 54.8666 3.93797 55.5147 3.95581V3.95315ZM7.26667 6.27848L11.152 1.55315H14.1867L8.82933 8.18515L14.536 15.1238H11.3067L7.26667 10.1211L3.22667 15.1238H0L5.70133 8.18515L0.346667 1.55315H3.38133L7.26933 6.27848H7.26667ZM18.3307 15.1238H15.888V4.38248H18.3307V15.1238ZM63.6373 15.1238H61.1947V4.38248H63.6373V15.1238ZM26.4667 9.89181C23.6533 9.89181 22.8427 10.9905 22.9307 11.8705C23.016 12.7478 23.7947 13.3025 24.9493 13.3025C25.6459 13.3039 26.3161 13.0361 26.82 12.5551C27.3238 12.0741 27.6224 11.417 27.6533 10.7211L27.6587 9.89448H26.4667V9.89181ZM37.3813 6.13181C35.6133 6.13181 34.224 7.43048 34.224 9.65181C34.224 11.8705 35.6107 13.1718 37.3813 13.1718C39.1467 13.1718 40.5333 11.8651 40.5333 9.65181C40.5333 7.43315 39.1467 6.13181 37.3813 6.13181ZM17.112 0.00114665C17.3183 -0.00582425 17.5239 0.0294511 17.7161 0.104806C17.9082 0.180161 18.083 0.294005 18.2296 0.439347C18.3762 0.58469 18.4915 0.758464 18.5685 0.949998C18.6455 1.14153 18.6825 1.34678 18.6773 1.55315C18.6606 1.95747 18.4883 2.33968 18.1963 2.61987C17.9043 2.90005 17.5153 3.0565 17.1107 3.0565C16.706 3.0565 16.317 2.90005 16.025 2.61987C15.733 2.33968 15.5607 1.95747 15.544 1.55315C15.5392 1.34654 15.5765 1.14111 15.6538 0.949429C15.7311 0.757749 15.8466 0.583838 15.9934 0.438327C16.1401 0.292816 16.315 0.178762 16.5074 0.103135C16.6997 0.0275083 16.9054 -0.00543589 17.112 0.00114665ZM62.4213 0.00114665C62.6285 -0.00690639 62.8352 0.0275257 63.0286 0.102324C63.222 0.177122 63.3981 0.290704 63.546 0.436082C63.6938 0.58146 63.8104 0.755558 63.8885 0.947666C63.9666 1.13977 64.0045 1.34583 64 1.55315C63.9767 1.9525 63.8016 2.32784 63.5106 2.60234C63.2196 2.87684 62.8347 3.02974 62.4347 3.02974C62.0346 3.02974 61.6497 2.87684 61.3587 2.60234C61.0677 2.32784 60.8927 1.9525 60.8693 1.55315C60.8622 1.24399 60.9494 0.940007 61.1195 0.681759C61.2896 0.42351 61.5345 0.223286 61.8213 0.107813C62.0121 0.0322605 62.2162 -0.00401893 62.4213 0.00114665Z" fill="var(--fill-0, white)"/>
</svg>
