<svg preserveAspectRatio="none" width="100%" height="100%" overflow="visible" style="display: block;" viewBox="0 0 64 53.3334" fill="none" xmlns="http://www.w3.org/2000/svg">
<path id="Vector" d="M43.408 0C46.4907 0 48.9893 2.472 48.9893 5.52V38.856C49.0107 39.3667 49.2295 39.8493 49.5996 40.2019C49.9697 40.5546 50.4621 40.7499 50.9733 40.7467C51.4841 40.7492 51.9759 40.5536 52.3454 40.201C52.7149 39.8484 52.9333 39.3663 52.9547 38.856V18.9307C52.9585 18.2093 53.1044 17.4957 53.384 16.8307C53.6637 16.1657 54.0715 15.5622 54.5843 15.0549C55.0972 14.5475 55.7049 14.1461 56.3729 13.8736C57.0408 13.6011 57.7559 13.4628 58.4773 13.4667C59.199 13.4628 59.9143 13.6012 60.5824 13.8738C61.2505 14.1465 61.8584 14.5481 62.3713 15.0558C62.8841 15.5635 63.2919 16.1672 63.5714 16.8325C63.8509 17.4978 63.9965 18.2117 64 18.9333V36.4293C63.9972 36.8879 63.8125 37.3266 63.4865 37.649C63.1605 37.9715 62.7199 38.1515 62.2613 38.1493C62.0341 38.1507 61.8087 38.1074 61.5982 38.0217C61.3877 37.936 61.1961 37.8097 61.0344 37.65C60.8727 37.4903 60.7441 37.3003 60.6558 37.0908C60.5675 36.8814 60.5214 36.6566 60.52 36.4293V18.9333C60.5186 18.6665 60.4647 18.4025 60.3612 18.1565C60.2578 17.9105 60.107 17.6873 59.9173 17.4996C59.7276 17.3119 59.5028 17.1634 59.2558 17.0626C59.0087 16.9618 58.7442 16.9106 58.4773 16.912C58.2105 16.9106 57.946 16.9618 57.6989 17.0626C57.4518 17.1634 57.227 17.3119 57.0374 17.4996C56.8477 17.6873 56.6968 17.9105 56.5934 18.1565C56.49 18.4025 56.4361 18.6665 56.4347 18.9333V38.8587C56.4308 39.572 56.2865 40.2776 56.01 40.9352C55.7334 41.5928 55.3301 42.1894 54.823 42.6911C54.3158 43.1928 53.7148 43.5897 53.0543 43.8591C52.3938 44.1285 51.6867 44.2652 50.9733 44.2613C50.26 44.2652 49.5529 44.1285 48.8924 43.8591C48.2318 43.5897 47.6308 43.1928 47.1237 42.6911C46.6166 42.1894 46.2132 41.5928 45.9367 40.9352C45.6602 40.2776 45.5158 39.572 45.512 38.8587V5.52533C45.4899 4.98368 45.2586 4.47173 44.8666 4.0972C44.4747 3.72268 43.9528 3.51481 43.4107 3.51733C42.8686 3.51409 42.3463 3.72129 41.9539 4.09532C41.5615 4.46934 41.3294 4.98102 41.3067 5.52267L41.304 47.9333C41.2955 49.3735 40.7155 50.7514 39.6913 51.764C38.6672 52.7767 37.2829 53.3411 35.8427 53.3333C35.1293 53.3372 34.4222 53.2005 33.7617 52.9311C33.1012 52.6617 32.5002 52.2648 31.993 51.7631C31.4859 51.2614 31.0826 50.6648 30.806 50.0072C30.5295 49.3496 30.3852 48.644 30.3813 47.9307V42.7733C30.3813 41.824 31.16 41.0533 32.12 41.0533C33.08 41.0533 33.8587 41.824 33.8587 42.7733V47.9307C33.8587 48.632 34.2373 49.28 34.8507 49.632C35.464 49.9813 36.2213 49.9813 36.8347 49.632C37.1356 49.4614 37.386 49.214 37.5602 48.9152C37.7345 48.6163 37.8264 48.2766 37.8267 47.9307V5.52C37.8267 2.472 40.3253 0 43.408 0ZM28.2773 0C31.36 0 33.8587 2.472 33.8587 5.52V36.248C33.8576 36.4752 33.8118 36.6999 33.7238 36.9093C33.6358 37.1187 33.5074 37.3087 33.346 37.4685C33.1845 37.6282 32.9931 37.7546 32.7827 37.8403C32.5723 37.926 32.3471 37.9694 32.12 37.968C31.8929 37.9694 31.6677 37.926 31.4573 37.8403C31.2469 37.7546 31.0555 37.6282 30.894 37.4685C30.7326 37.3087 30.6042 37.1187 30.5162 36.9093C30.4282 36.6999 30.3824 36.4752 30.3813 36.248V5.52C30.3778 4.96528 30.1542 4.43463 29.7597 4.04463C29.3652 3.65463 28.8321 3.43716 28.2773 3.44C27.7226 3.43716 27.1894 3.65463 26.7949 4.04463C26.4004 4.43463 26.1769 4.96528 26.1733 5.52V42.888C26.1649 44.344 25.5787 45.7371 24.5437 46.7611C23.5086 47.7852 22.1093 48.3564 20.6533 48.3493C19.1969 48.3571 17.7969 47.7862 16.7613 46.7621C15.7257 45.738 15.1391 44.3445 15.1307 42.888V18.9333C15.1293 18.6665 15.0753 18.4025 14.9719 18.1565C14.8685 17.9105 14.7177 17.6873 14.528 17.4996C14.3383 17.3119 14.1135 17.1634 13.8664 17.0626C13.6194 16.9618 13.3548 16.9106 13.088 16.912C12.8212 16.9106 12.5566 16.9618 12.3096 17.0626C12.0625 17.1634 11.8377 17.3119 11.648 17.4996C11.4583 17.6873 11.3075 17.9105 11.2041 18.1565C11.1007 18.4025 11.0467 18.6665 11.0453 18.9333V29.0667C11.0415 29.7881 10.8956 30.5016 10.616 31.1667C10.3364 31.8317 9.92848 32.4351 9.41565 32.9425C8.90283 33.4499 8.29508 33.8513 7.62712 34.1238C6.95916 34.3963 6.24406 34.5345 5.52267 34.5307C4.80127 34.5345 4.08617 34.3963 3.41821 34.1238C2.75025 33.8513 2.14251 33.4499 1.62968 32.9425C1.11685 32.4351 0.708981 31.8317 0.42936 31.1667C0.149738 30.5016 0.00384184 29.7881 0 29.0667L0 25.392C0 24.44 0.778667 23.6693 1.73867 23.6693C2.69867 23.6693 3.48 24.4427 3.48 25.392V29.0667C3.48 30.1813 4.39467 31.0853 5.52267 31.0853C6.65067 31.0853 7.56533 30.1813 7.56533 29.0667V18.9307C7.5738 17.4747 8.15996 16.0816 9.19501 15.0575C10.2301 14.0335 11.6293 13.4622 13.0853 13.4693C14.5418 13.4615 15.9418 14.0325 16.9774 15.0566C18.013 16.0807 18.5995 17.4742 18.608 18.9307V42.888C18.608 44.0053 19.5227 44.9093 20.6533 44.9093C21.7813 44.9093 22.696 44.0053 22.696 42.888V5.52C22.696 2.472 25.1947 0 28.2773 0Z" fill="var(--fill-0, white)"/>
</svg>
