<svg width="256" height="256" viewBox="0 0 256 256" fill="none" xmlns="http://www.w3.org/2000/svg">
<g clip-path="url(#clip0_560_2360)">
<path fill-rule="evenodd" clip-rule="evenodd" d="M253.653 53.3762H251.221C248.156 53.386 245.123 53.9998 242.295 55.1825C239.467 56.3652 236.9 58.0937 234.74 60.2691C232.581 62.4445 230.871 65.0242 229.709 67.8607C228.547 70.6972 227.955 73.7349 227.968 76.8002V129.195C227.968 139.648 219.392 148.128 209.195 148.128C206.11 148.102 203.077 147.34 200.346 145.906C197.615 144.472 195.266 142.407 193.493 139.883L140.459 63.4668C138.303 60.3396 135.419 57.7832 132.056 56.018C128.692 54.2527 124.95 53.3314 121.152 53.3335C109.056 53.3335 98.176 63.7015 98.176 76.5122V129.205C98.176 139.659 89.6747 148.139 79.4027 148.139C73.3227 148.139 67.2853 145.056 63.7013 139.893L4.352 54.3788C3.008 52.4588 0 53.4082 0 55.7655V101.461C0 103.765 0.704 106.006 2.00533 107.904L60.4053 192.053C63.8613 197.024 68.9387 200.715 74.816 202.059C89.504 205.429 103.029 194.016 103.029 179.477V126.827C103.029 116.374 111.424 107.893 121.803 107.893H121.824C128.075 107.893 133.931 110.965 137.525 116.139L190.56 192.544C192.684 195.703 195.561 198.283 198.932 200.052C202.303 201.821 206.06 202.723 209.867 202.677C222.219 202.677 232.811 192.299 232.811 179.499V126.816C232.811 116.363 241.205 107.883 251.584 107.883H253.653C254.955 107.883 256 106.816 256 105.515V55.7335C256.001 55.4239 255.942 55.1171 255.825 54.8306C255.707 54.544 255.535 54.2834 255.317 54.0635C255.099 53.8436 254.84 53.6688 254.555 53.549C254.269 53.4293 253.963 53.3669 253.653 53.3655V53.3762Z" fill="black"/>
</g>
<defs>
<clipPath id="clip0_560_2360">
<rect width="256" height="256" fill="white"/>
</clipPath>
</defs>
</svg>
