<svg width="256" height="256" viewBox="0 0 256 256" fill="none" xmlns="http://www.w3.org/2000/svg">
<path fill-rule="evenodd" clip-rule="evenodd" d="M117.954 42.6708C135.254 42.89 150.345 52.2627 158.615 66.1669C159.381 66.0588 160.145 65.9547 160.905 65.8535C160.989 65.8423 161.073 65.8314 161.157 65.8203C161.955 65.7147 162.749 65.6127 163.54 65.5146C163.578 65.5098 163.616 65.5047 163.655 65.5C165.295 65.2971 166.919 65.1108 168.527 64.9404C168.596 64.9331 168.664 64.9252 168.733 64.9179C170.316 64.7513 171.882 64.601 173.431 64.4658C173.521 64.4579 173.61 64.4501 173.7 64.4423C174.428 64.3795 175.153 64.3195 175.874 64.2636C175.954 64.2574 176.034 64.2522 176.115 64.246C176.815 64.1924 177.512 64.1418 178.205 64.0947C178.329 64.0862 178.453 64.0785 178.577 64.0703C179.278 64.0237 179.975 63.9793 180.668 63.9394C180.703 63.9374 180.738 63.9355 180.773 63.9335C181.479 63.8932 182.182 63.8565 182.879 63.8232C183.044 63.8153 183.208 63.8082 183.373 63.8007C183.999 63.7722 184.622 63.7464 185.241 63.7236C185.334 63.7202 185.426 63.7171 185.519 63.7138C186.196 63.6898 186.868 63.6686 187.536 63.6513C187.588 63.65 187.64 63.6487 187.693 63.6474C188.395 63.6298 189.091 63.6155 189.783 63.6054C189.797 63.6052 189.811 63.6046 189.826 63.6044C200.806 63.4461 210.484 64.2315 218.374 65.9404C218.436 65.9539 218.499 65.9677 218.561 65.9814C218.774 66.0281 218.985 66.0759 219.196 66.124C219.226 66.131 219.257 66.1384 219.288 66.1455C219.524 66.1998 219.759 66.2544 219.993 66.3105C220.009 66.3145 220.026 66.3182 220.042 66.3222C220.272 66.3777 220.501 66.434 220.727 66.4912C220.778 66.5041 220.829 66.5172 220.88 66.5302C221.067 66.5777 221.252 66.6261 221.436 66.6748C221.513 66.695 221.589 66.7149 221.666 66.7353C222.104 66.8528 222.536 66.9726 222.961 67.0966C222.984 67.1033 223.007 67.1105 223.03 67.1171C223.715 67.3178 224.382 67.5275 225.032 67.7451C225.145 67.7829 225.257 67.822 225.369 67.8603C225.475 67.8969 225.582 67.9326 225.688 67.9697C225.828 68.0188 225.967 68.0691 226.106 68.1191C226.197 68.1521 226.289 68.1844 226.379 68.2177C226.431 68.2367 226.482 68.2562 226.534 68.2753C227.528 68.6449 228.475 69.0365 229.374 69.4492C229.415 69.4677 229.455 69.4853 229.496 69.5039L229.534 69.5214C229.835 69.6615 230.13 69.8052 230.42 69.9501C230.502 69.9909 230.584 70.0301 230.665 70.0712C230.75 70.1146 230.833 70.1593 230.917 70.2031C231.026 70.2598 231.134 70.3166 231.242 70.374C231.327 70.4197 231.411 70.4665 231.496 70.5126C231.583 70.5605 231.67 70.6079 231.756 70.6562C231.842 70.704 231.926 70.7525 232.01 70.8007C232.114 70.86 232.216 70.9194 232.318 70.9794C232.383 71.0177 232.447 71.0561 232.511 71.0947C232.612 71.155 232.711 71.2153 232.81 71.2763C232.907 71.3363 233.003 71.3973 233.098 71.458C233.162 71.4986 233.226 71.5391 233.289 71.58C233.37 71.6329 233.451 71.6868 233.531 71.7402C233.627 71.8044 233.723 71.8686 233.818 71.9335C233.872 71.9707 233.925 72.0085 233.979 72.0459C234.076 72.1135 234.172 72.1806 234.267 72.249C234.345 72.305 234.421 72.3623 234.498 72.4189C234.567 72.4706 234.637 72.522 234.706 72.5742C234.783 72.6331 234.86 72.6925 234.936 72.7519C235 72.802 235.064 72.8518 235.127 72.9023C235.215 72.972 235.301 73.0418 235.386 73.1123C235.446 73.1617 235.505 73.2118 235.564 73.2617C235.635 73.322 235.706 73.3825 235.776 73.4433C235.844 73.5029 235.912 73.5629 235.979 73.623C236.057 73.6929 236.134 73.7633 236.21 73.8339C236.249 73.8694 236.287 73.9048 236.325 73.9404C236.414 74.0243 236.502 74.1084 236.588 74.1933C236.633 74.2376 236.678 74.2825 236.722 74.3271C236.794 74.3991 236.865 74.4712 236.935 74.5439C236.985 74.5958 237.034 74.6479 237.083 74.7001C237.15 74.771 237.215 74.8425 237.28 74.914C237.332 74.972 237.384 75.0304 237.435 75.0888C237.495 75.1567 237.554 75.2245 237.612 75.2929C237.669 75.3608 237.726 75.4295 237.782 75.498C237.832 75.5594 237.882 75.6207 237.931 75.6826C237.978 75.7416 238.024 75.8008 238.07 75.8603C238.126 75.9333 238.181 76.0064 238.236 76.08C238.286 76.1479 238.335 76.2167 238.383 76.2851C238.428 76.3479 238.473 76.4104 238.516 76.4736C238.564 76.5438 238.611 76.6147 238.658 76.6855C238.701 76.7516 238.745 76.8172 238.788 76.8837C238.827 76.9464 238.865 77.0101 238.904 77.0732C238.952 77.1512 238.999 77.2289 239.045 77.3076C239.088 77.3801 239.129 77.4533 239.169 77.5263C239.2 77.5817 239.232 77.6366 239.262 77.6923C239.31 77.7806 239.355 77.8698 239.401 77.9589C239.433 78.021 239.464 78.083 239.495 78.1455C239.529 78.2154 239.561 78.286 239.594 78.3564C239.627 78.4271 239.661 78.4971 239.693 78.5683C239.729 78.6501 239.763 78.7329 239.797 78.8154C239.825 78.8812 239.854 78.9464 239.88 79.0126C239.907 79.08 239.932 79.148 239.958 79.2158C240.099 79.5909 240.224 79.972 240.328 80.3603C243.313 91.5015 230.102 105.715 206.924 119.016C206.85 119.058 206.775 119.102 206.701 119.144C206.202 119.43 205.698 119.713 205.191 119.997C205.05 120.076 204.909 120.156 204.767 120.235C204.352 120.467 203.933 120.696 203.511 120.927C203.254 121.067 202.997 121.21 202.738 121.351C202.341 121.565 201.941 121.778 201.54 121.992C201.277 122.132 201.015 122.273 200.75 122.413C200.251 122.677 199.746 122.938 199.239 123.201C199.07 123.289 198.901 123.377 198.731 123.465C198.256 123.709 197.776 123.953 197.294 124.196C197.057 124.316 196.82 124.438 196.581 124.558C196.145 124.776 195.707 124.993 195.267 125.21C194.978 125.353 194.688 125.496 194.396 125.639C193.942 125.861 193.484 126.081 193.024 126.302C192.773 126.422 192.523 126.544 192.271 126.664C191.84 126.87 191.406 127.075 190.97 127.279C190.613 127.447 190.254 127.615 189.893 127.782C189.548 127.943 189.2 128.102 188.852 128.262C188.435 128.453 188.017 128.645 187.596 128.835C187.247 128.993 186.897 129.15 186.545 129.308C186.14 129.489 185.733 129.67 185.324 129.851C184.934 130.023 184.543 130.195 184.15 130.366C183.916 130.468 183.683 130.571 183.449 130.673L235.742 218.546C239.972 225.656 234.849 234.668 226.575 234.668H115.91C104.7 234.668 95.4015 225.991 94.6274 214.808L90.5513 155.928C90.5109 155.933 90.4705 155.938 90.4302 155.943C90.3986 155.947 90.367 155.951 90.3354 155.955C89.5581 156.051 88.7843 156.144 88.0141 156.232C87.9089 156.245 87.8038 156.257 87.6987 156.269C86.9461 156.354 86.1971 156.438 85.4516 156.517C85.3852 156.524 85.3188 156.53 85.2524 156.537C84.4884 156.617 83.7284 156.695 82.9722 156.769C82.9093 156.775 82.8465 156.78 82.7837 156.786C81.1841 156.94 79.6024 157.076 78.0395 157.197C78.0278 157.198 78.0161 157.199 78.0044 157.2C77.2209 157.261 76.4423 157.317 75.6684 157.369C75.6385 157.371 75.6086 157.374 75.5786 157.376C74.8486 157.425 74.123 157.47 73.4018 157.512C73.2845 157.518 73.1673 157.525 73.0503 157.531C72.3533 157.57 71.6606 157.607 70.9722 157.64C70.9627 157.64 70.9533 157.64 70.9438 157.641C69.4223 157.712 67.922 157.768 66.4438 157.807C66.396 157.808 66.3481 157.808 66.3003 157.81C65.6009 157.827 64.9065 157.841 64.2173 157.852C64.1648 157.852 64.1124 157.853 64.06 157.853C63.3802 157.863 62.7054 157.869 62.0356 157.871C61.9692 157.871 61.9028 157.871 61.8364 157.871C54.7326 157.887 48.2079 157.495 42.4009 156.7C42.3226 156.689 42.2445 156.679 42.1665 156.668C41.621 156.592 41.0819 156.512 40.5493 156.429C40.5164 156.424 40.4835 156.419 40.4507 156.414C40.2061 156.376 39.9629 156.337 39.7212 156.297C39.6775 156.29 39.6339 156.283 39.5903 156.275C39.3421 156.234 39.0954 156.191 38.8501 156.148C38.811 156.142 38.7719 156.135 38.7329 156.128C38.508 156.088 38.2844 156.048 38.062 156.007C38.0036 155.996 37.9454 155.984 37.8872 155.974C37.4136 155.885 36.9458 155.794 36.4839 155.699C36.3696 155.676 36.2556 155.653 36.1421 155.629C35.9519 155.589 35.7628 155.549 35.5747 155.508C35.5453 155.501 35.5161 155.495 35.4868 155.488C35.2565 155.438 35.0275 155.388 34.8003 155.336C34.7576 155.326 34.7149 155.316 34.6724 155.307C34.4436 155.254 34.2163 155.201 33.9907 155.146C33.9741 155.142 33.9575 155.139 33.9409 155.135C33.7137 155.08 33.4881 155.024 33.2641 154.968C33.2119 154.955 33.1599 154.941 33.1079 154.928C32.904 154.876 32.7016 154.823 32.5005 154.769C32.4591 154.759 32.4178 154.747 32.3765 154.736C32.1703 154.681 31.9655 154.626 31.7622 154.569C31.7217 154.558 31.6814 154.546 31.6411 154.535C31.4405 154.479 31.2412 154.423 31.0434 154.365C30.9807 154.347 30.9184 154.328 30.8559 154.31C30.6926 154.261 30.53 154.213 30.3686 154.164C30.2344 154.123 30.1011 154.082 29.9683 154.04C29.8679 154.009 29.768 153.977 29.6684 153.945C29.5858 153.919 29.5035 153.892 29.4214 153.865C27.4694 153.232 25.6735 152.525 24.0454 151.743C23.9952 151.719 23.9449 151.695 23.895 151.671C23.7811 151.615 23.6684 151.559 23.5561 151.503C23.4777 151.464 23.3993 151.425 23.3218 151.386C23.1846 151.316 23.0491 151.245 22.9145 151.174C22.8701 151.15 22.8258 151.127 22.7817 151.103C22.6615 151.039 22.5425 150.974 22.4243 150.909C22.3584 150.873 22.2923 150.837 22.227 150.801C22.108 150.734 21.9904 150.666 21.8735 150.599C21.8173 150.566 21.7612 150.534 21.7056 150.501C21.6212 150.451 21.5378 150.401 21.4546 150.351C21.3471 150.286 21.2398 150.222 21.1343 150.156C21.0995 150.135 21.0653 150.112 21.0307 150.091C20.8996 150.008 20.7701 149.925 20.6421 149.842C20.552 149.783 20.463 149.723 20.3745 149.664C20.3232 149.63 20.272 149.595 20.2212 149.561C20.1212 149.492 20.0223 149.424 19.9243 149.354C19.8598 149.309 19.7956 149.264 19.7319 149.218C19.6415 149.153 19.552 149.087 19.4634 149.021C19.4044 148.978 19.3458 148.934 19.2876 148.89C19.202 148.825 19.1176 148.759 19.0337 148.693C18.9664 148.641 18.8996 148.588 18.8335 148.535C18.7637 148.479 18.695 148.423 18.6265 148.366C18.5537 148.306 18.481 148.247 18.4097 148.186C18.3416 148.129 18.2743 148.071 18.2075 148.013C18.1361 147.95 18.0655 147.888 17.9956 147.825C17.9352 147.771 17.8752 147.717 17.8159 147.662C17.7458 147.598 17.6764 147.533 17.6079 147.468C17.5453 147.408 17.4837 147.348 17.4224 147.288C17.3646 147.232 17.3071 147.175 17.2505 147.118C17.1822 147.049 17.1149 146.98 17.0483 146.911C16.9897 146.85 16.9318 146.789 16.8745 146.727C16.8173 146.666 16.7605 146.605 16.7046 146.543C16.6472 146.479 16.5907 146.416 16.5347 146.352C16.4798 146.289 16.4251 146.226 16.3716 146.163C16.3126 146.094 16.2551 146.023 16.1977 145.953C16.1504 145.895 16.1033 145.838 16.0571 145.779C15.9937 145.699 15.9319 145.619 15.8706 145.538C15.8344 145.49 15.7977 145.443 15.7622 145.395C15.7026 145.315 15.645 145.234 15.5874 145.152C15.5472 145.096 15.5065 145.039 15.4673 144.982C15.4191 144.912 15.3724 144.841 15.3257 144.77C15.283 144.706 15.2402 144.641 15.1987 144.576C15.1473 144.495 15.0978 144.414 15.0483 144.332C15.0157 144.278 14.9824 144.225 14.9507 144.171C14.902 144.088 14.8558 144.004 14.8091 143.92C14.7758 143.86 14.7417 143.801 14.7095 143.741C14.6664 143.661 14.6257 143.58 14.5845 143.499C14.554 143.439 14.5221 143.38 14.4927 143.32C14.3716 143.073 14.2607 142.822 14.1567 142.569C14.1396 142.528 14.1216 142.486 14.105 142.444C13.9299 142.004 13.7796 141.555 13.6567 141.097C13.4483 140.319 13.3187 139.525 13.2661 138.719C13.2451 138.396 13.2363 138.071 13.2397 137.744C13.2414 137.581 13.2466 137.417 13.2544 137.253C13.2699 136.924 13.2978 136.593 13.3374 136.26C14.963 122.58 36.7656 105.587 69.3374 91.3066C69.3346 91.0937 69.3335 90.8805 69.3335 90.6669C69.3335 64.1573 90.8238 42.6669 117.333 42.6669L117.954 42.6708ZM37.9399 3.21089C39.6396 -1.0695 45.6982 -1.06882 47.397 3.21186L54.1157 20.1425C54.1898 20.3286 54.3385 20.4741 54.5249 20.5478L71.4595 27.2724C75.7389 28.972 75.739 35.0299 71.4595 36.7294L54.5249 43.4541C54.3385 43.5277 54.1898 43.6732 54.1157 43.8593L47.397 60.79C45.6981 65.0706 39.6396 65.0714 37.9399 60.791L31.2173 43.8593C31.1433 43.6742 30.9972 43.528 30.812 43.4541L13.8784 36.7294C9.5991 35.0298 9.59915 28.972 13.8784 27.2724L30.812 20.5478C30.9972 20.474 31.1433 20.3277 31.2173 20.1425L37.9399 3.21089ZM200.346 10.6708C207.551 10.8532 213.335 16.7512 213.335 24C213.335 31.2488 207.552 37.1467 200.346 37.3291C200.232 37.3319 200.117 37.3339 200.002 37.3339L199.659 37.3291C192.453 37.1468 186.669 31.2489 186.669 24C186.67 16.7511 192.453 10.8531 199.659 10.6708C199.773 10.668 199.888 10.6669 200.002 10.6669L200.346 10.6708Z" fill="black"/>
</svg>
