<svg width="256" height="256" viewBox="0 0 256 256" fill="none" xmlns="http://www.w3.org/2000/svg">
<g clip-path="url(#clip0_560_2364)">
<path d="M253.311 47.8078C250.602 46.4852 249.429 49.0132 247.85 50.3038C247.306 50.7198 246.847 51.2638 246.389 51.7545C242.421 55.9892 237.791 58.7625 231.743 58.4318C222.901 57.9412 215.349 60.7145 208.671 67.4772C207.253 59.1358 202.538 54.1652 195.37 50.9652C191.615 49.3012 187.818 47.6478 185.183 44.0318C183.349 41.4612 182.847 38.5918 181.93 35.7758C181.343 34.0692 180.757 32.3305 178.805 32.0425C176.671 31.7118 175.839 33.4932 175.007 34.9865C171.669 41.0878 170.378 47.8078 170.506 54.6132C170.794 69.9305 177.258 82.1332 190.111 90.8052C191.573 91.7972 191.946 92.7998 191.487 94.2505C190.613 97.2372 189.567 100.138 188.65 103.136C188.063 105.045 187.189 105.451 185.141 104.629C178.221 101.655 171.935 97.3826 166.623 92.0425C157.482 83.2105 149.226 73.4612 138.922 65.8238C136.535 64.0598 134.083 62.384 131.573 60.7998C121.066 50.5918 132.959 42.2078 135.711 41.2158C138.591 40.1705 136.703 36.6078 127.402 36.6505C118.101 36.6932 109.589 39.7972 98.7408 43.9465C97.1288 44.5642 95.4702 45.0529 93.7808 45.4078C83.6435 43.4978 73.2757 43.131 63.0288 44.3198C42.9221 46.5598 26.8688 56.0745 15.0608 72.2985C0.874129 91.7972 -2.46454 113.963 1.6208 137.067C5.91946 161.429 18.3568 181.6 37.4608 197.365C57.2795 213.717 80.0955 221.728 106.133 220.192C121.941 219.285 139.551 217.163 159.402 200.352C164.415 202.848 169.663 203.84 178.389 204.587C185.109 205.216 191.573 204.266 196.575 203.221C204.415 201.557 203.871 194.293 201.045 192.97C178.058 182.261 183.103 186.624 178.506 183.093C190.197 169.269 207.797 154.912 214.687 108.394C215.221 104.693 214.762 102.368 214.687 99.3812C214.645 97.5678 215.061 96.8532 217.141 96.6505C222.912 96.0518 228.51 94.3306 233.621 91.5838C248.511 83.4452 254.527 70.0905 255.946 54.0692C256.159 51.6158 255.903 49.0985 253.311 47.8078ZM123.53 192C101.247 174.485 90.4421 168.714 85.9835 168.96C81.8021 169.216 82.5595 173.984 83.4768 177.098C84.4368 180.171 85.6848 182.282 87.4341 184.981C88.6501 186.762 89.4821 189.418 86.2288 191.413C79.0501 195.85 66.5808 189.92 65.9941 189.632C51.4768 181.077 39.3275 169.792 30.7835 154.357C22.5275 139.498 17.7275 123.562 16.9381 106.549C16.7248 102.432 17.9301 100.981 22.0261 100.235C27.4033 99.2055 32.9128 99.0649 38.3355 99.8185C61.0768 103.146 80.4261 113.312 96.6608 129.408C105.919 138.581 112.927 149.536 120.149 160.245C127.829 171.616 136.085 182.453 146.602 191.328C150.314 194.442 153.269 196.811 156.106 198.549C147.551 199.509 133.279 199.722 123.53 192ZM134.197 123.307C134.195 122.777 134.322 122.254 134.567 121.785C134.813 121.315 135.168 120.912 135.604 120.61C136.04 120.309 136.543 120.118 137.069 120.055C137.595 119.991 138.128 120.056 138.623 120.245C139.255 120.472 139.799 120.889 140.182 121.44C140.564 121.991 140.765 122.647 140.757 123.317C140.758 123.75 140.673 124.179 140.507 124.579C140.341 124.98 140.097 125.343 139.79 125.647C139.482 125.952 139.116 126.193 138.715 126.355C138.313 126.517 137.883 126.597 137.45 126.592C137.02 126.593 136.594 126.509 136.198 126.344C135.801 126.179 135.441 125.936 135.139 125.63C134.837 125.324 134.599 124.961 134.439 124.562C134.279 124.163 134.19 123.736 134.197 123.307ZM167.37 140.33C165.237 141.194 163.114 141.941 161.077 142.037C158.012 142.144 155.004 141.187 152.565 139.328C149.642 136.875 147.551 135.509 146.677 131.243C146.375 129.157 146.433 127.036 146.847 124.97C147.594 121.482 146.762 119.243 144.298 117.216C142.303 115.552 139.754 115.093 136.959 115.093C136.003 115.038 135.073 114.752 134.25 114.261C133.077 113.685 132.117 112.234 133.034 110.442C133.333 109.867 134.741 108.459 135.082 108.202C138.879 106.048 143.263 106.752 147.306 108.373C151.061 109.909 153.898 112.725 157.983 116.715C162.154 121.525 162.911 122.858 165.29 126.464C167.167 129.29 168.874 132.192 170.037 135.509C170.751 137.589 169.834 139.285 167.37 140.33Z" fill="black"/>
</g>
<defs>
<clipPath id="clip0_560_2364">
<rect width="256" height="256" fill="white"/>
</clipPath>
</defs>
</svg>
