<svg width="24" height="24" viewBox="0 0 24 24" fill="none" xmlns="http://www.w3.org/2000/svg">
<g clip-path="url(#clip0_685_4461)">
<path fill-rule="evenodd" clip-rule="evenodd" d="M11.0001 4.00018C12.6461 4.00033 14.0848 4.88439 14.8693 6.20331C15.0559 6.17699 15.2405 6.15305 15.423 6.13104C15.492 6.12272 15.5607 6.11434 15.629 6.10663C15.7224 6.09611 15.8152 6.08671 15.9074 6.07733C15.9685 6.07111 16.0294 6.0645 16.09 6.05878C16.1705 6.05118 16.2506 6.044 16.3302 6.03729C16.4078 6.03074 16.485 6.02444 16.5617 6.01874C16.6605 6.01139 16.7585 6.00516 16.8556 5.99921C16.8968 5.99668 16.9378 5.99464 16.9786 5.99237C17.0815 5.98665 17.1834 5.98185 17.2843 5.97772C17.3295 5.97587 17.3744 5.97339 17.4191 5.97186C17.5171 5.96851 17.6141 5.96686 17.7101 5.96503C17.7572 5.96413 17.8041 5.96263 17.8507 5.9621C17.9439 5.96103 18.036 5.9617 18.1271 5.9621C18.169 5.96228 18.2106 5.96258 18.2521 5.96307C18.34 5.96412 18.4269 5.96553 18.5128 5.96796C18.5617 5.96934 18.6102 5.97101 18.6583 5.97284C18.7381 5.97587 18.8168 5.97933 18.8947 5.98358C18.9472 5.98645 18.9993 5.98992 19.0509 5.99335C19.1228 5.99812 19.1937 6.00312 19.2638 6.00897C19.3144 6.01319 19.3645 6.01786 19.4142 6.02264C19.4801 6.029 19.5452 6.03581 19.6095 6.04315C19.6645 6.04943 19.7189 6.05568 19.7726 6.06268C19.8307 6.07025 19.8879 6.07869 19.9445 6.0871C20.0063 6.09629 20.0671 6.1062 20.1271 6.11639C20.1725 6.12412 20.2175 6.13153 20.2619 6.13983C20.3127 6.14935 20.3628 6.15983 20.4122 6.1701C20.4699 6.18208 20.5265 6.19422 20.5822 6.20721C20.6235 6.21686 20.6641 6.22728 20.7042 6.23749C20.7603 6.25175 20.8154 6.26608 20.8693 6.28143C20.9063 6.292 20.9426 6.30355 20.9786 6.31464C21.0305 6.3306 21.0814 6.34643 21.131 6.36346C21.1716 6.37742 21.2111 6.39274 21.2501 6.40741C21.2902 6.42245 21.3299 6.43654 21.3683 6.45233C21.4153 6.47164 21.4606 6.49244 21.505 6.51288C21.5341 6.52625 21.563 6.53907 21.591 6.55292C21.6342 6.57432 21.6753 6.59775 21.716 6.6203C21.7444 6.63608 21.7728 6.65084 21.7999 6.66718C21.8314 6.68617 21.8611 6.707 21.8908 6.72675C21.9217 6.74733 21.9526 6.76687 21.9816 6.78827C22.0061 6.8064 22.0288 6.82619 22.0519 6.84491C22.0811 6.86859 22.11 6.89158 22.1369 6.9162C22.1699 6.94648 22.2002 6.97825 22.2296 7.00995C22.2445 7.02597 22.2596 7.04142 22.2736 7.0578C22.294 7.0818 22.3118 7.10724 22.3302 7.13202C22.3491 7.15755 22.3691 7.18184 22.3859 7.20819C22.4391 7.29201 22.4785 7.38074 22.5089 7.47284C22.5156 7.49316 22.5248 7.51266 22.5304 7.53339C22.5616 7.64997 22.5743 7.7705 22.5685 7.89374C22.5677 7.91003 22.564 7.92617 22.5626 7.94257C22.559 7.98583 22.5541 8.02945 22.546 8.07343C22.5456 8.07594 22.5465 8.07872 22.546 8.08124C22.5342 8.14436 22.5178 8.20818 22.4972 8.27264C22.4885 8.2999 22.4762 8.32622 22.466 8.3537C22.4533 8.38757 22.4409 8.42204 22.4259 8.45624C22.4109 8.49052 22.3934 8.52419 22.3761 8.55878C22.3618 8.58744 22.348 8.61683 22.3322 8.64569C22.3103 8.68535 22.2866 8.72482 22.2619 8.76483C22.2459 8.79064 22.2302 8.81701 22.213 8.84296C22.1847 8.88573 22.1537 8.92776 22.1222 8.97089C22.1044 8.99528 22.0873 9.02061 22.0685 9.0451C22.042 9.07964 22.014 9.1139 21.9855 9.14862C21.957 9.18326 21.928 9.2183 21.8976 9.25311C21.8707 9.28394 21.8421 9.31396 21.8136 9.34491C21.7767 9.3851 21.7388 9.42563 21.6994 9.466C21.6701 9.49594 21.6401 9.52583 21.6095 9.55585C21.5754 9.58926 21.5408 9.62292 21.505 9.65643C21.4569 9.70151 21.4076 9.74695 21.3566 9.79218C21.3341 9.81207 21.3113 9.83183 21.2882 9.85175C21.23 9.90206 21.1703 9.95269 21.1085 10.0031C21.0845 10.0228 21.0599 10.0421 21.0353 10.0617C20.9787 10.1069 20.9208 10.1522 20.8615 10.1974C20.8219 10.2276 20.7821 10.2581 20.7413 10.2883C20.6948 10.3227 20.6469 10.3564 20.5988 10.3908C20.5437 10.4302 20.4878 10.4696 20.4308 10.509C20.3919 10.5358 20.3524 10.5623 20.3126 10.5891C20.2514 10.6303 20.1895 10.6719 20.1261 10.7131C20.0771 10.7449 20.027 10.776 19.9767 10.8078C19.9185 10.8445 19.8598 10.8815 19.7999 10.9182C19.749 10.9493 19.6977 10.9808 19.6456 11.0119C19.5842 11.0486 19.5222 11.0857 19.4591 11.1223C19.3995 11.1568 19.3386 11.1904 19.2775 11.2248C19.2259 11.2539 19.1738 11.2828 19.1212 11.3117C19.0384 11.3573 18.9545 11.4031 18.8693 11.4484C18.8193 11.475 18.7687 11.5011 18.7179 11.5275C18.6632 11.556 18.6085 11.5851 18.5529 11.6135C18.474 11.6536 18.3943 11.6937 18.3136 11.7336C18.2344 11.7727 18.1544 11.8119 18.0734 11.8508C18.0442 11.8648 18.0149 11.8788 17.9855 11.8928C17.8942 11.9361 17.8016 11.9788 17.7081 12.0217C17.6234 12.0606 17.5378 12.0993 17.4513 12.1379C17.3835 12.1681 17.315 12.1978 17.2462 12.2277C17.2299 12.2348 17.2137 12.2421 17.1974 12.2492L22.1007 20.4885C22.4973 21.155 22.0169 22 21.2413 22.0002H10.8663C9.8154 22.0002 8.9438 21.1863 8.87123 20.1379L8.48841 14.6164C8.48449 14.6169 8.48062 14.6179 8.4767 14.6183C8.37742 14.6307 8.2788 14.6425 8.1808 14.6535C8.09074 14.6636 8.00119 14.6727 7.91224 14.6818C7.84581 14.6886 7.7798 14.6961 7.714 14.7023C7.63675 14.7096 7.55987 14.7154 7.48353 14.7219C7.40059 14.7289 7.31829 14.7363 7.23646 14.7424C7.17627 14.7468 7.11635 14.7502 7.05677 14.7541C6.96089 14.7604 6.86586 14.7667 6.77162 14.7717C6.70017 14.7754 6.6292 14.7784 6.55873 14.7814C6.49912 14.784 6.43988 14.7863 6.38099 14.7883C6.30883 14.7907 6.23722 14.7925 6.16615 14.7941C6.07205 14.7963 5.97896 14.7983 5.88685 14.799C5.85286 14.7993 5.81901 14.799 5.78529 14.799C5.68941 14.7992 5.59469 14.7985 5.50111 14.7971C5.43939 14.7961 5.37821 14.7948 5.31752 14.7932C5.26239 14.7917 5.20772 14.7893 5.15345 14.7873C5.07205 14.7842 4.99165 14.7809 4.91224 14.7766C4.8544 14.7734 4.79713 14.7697 4.74037 14.7658C4.69079 14.7624 4.64164 14.7589 4.59291 14.7551C4.5086 14.7484 4.42561 14.7409 4.34388 14.7326C4.30221 14.7284 4.26084 14.7245 4.21986 14.7199C4.15616 14.7127 4.09339 14.7046 4.03138 14.6965C3.972 14.6887 3.9134 14.6807 3.8556 14.6721C3.80849 14.665 3.762 14.6572 3.71595 14.6496C3.65649 14.6397 3.59782 14.6302 3.54017 14.6193C3.48594 14.6091 3.43261 14.5982 3.38002 14.5871C3.33006 14.5766 3.281 14.5652 3.23256 14.5539C3.18289 14.5423 3.13412 14.5301 3.08607 14.5178C3.04419 14.507 3.00268 14.497 2.96205 14.4855C2.89751 14.4674 2.83489 14.4476 2.77357 14.4279C2.74896 14.42 2.72442 14.4126 2.70033 14.4045C2.63892 14.3837 2.57954 14.3615 2.52162 14.3391C2.49754 14.3297 2.47379 14.3203 2.45033 14.3107C2.39655 14.2887 2.34459 14.2658 2.29408 14.2424C2.26897 14.2307 2.24415 14.2192 2.21986 14.2072C2.168 14.1815 2.1185 14.1544 2.07045 14.1271C2.05345 14.1175 2.03618 14.1087 2.01966 14.0988C1.96592 14.0667 1.91488 14.0335 1.86634 13.9992C1.85558 13.9916 1.84462 13.9845 1.83412 13.9767C1.79213 13.9459 1.75373 13.9126 1.71595 13.8801C1.702 13.868 1.68733 13.8572 1.67396 13.8449C1.64319 13.8167 1.61566 13.7865 1.58802 13.757C1.57036 13.7382 1.55068 13.7216 1.53431 13.7023C1.41208 13.5581 1.32653 13.3998 1.28041 13.2277C1.04591 12.3526 1.87689 11.2749 3.4308 10.215C3.53443 10.1443 3.64116 10.0736 3.75111 10.0031C4.41074 9.58043 5.18248 9.16306 6.04408 8.76483C6.19379 8.69564 6.34609 8.62673 6.50111 8.55878C6.50086 8.53927 6.50013 8.51975 6.50013 8.50018C6.50013 6.0149 8.51485 4.00018 11.0001 4.00018ZM3.55677 0.300965C3.71613 -0.100301 4.28424 -0.100342 4.44349 0.300965L5.07338 1.88788C5.0803 1.90531 5.09402 1.91904 5.11146 1.92596L6.69935 2.55682C7.10021 2.71629 7.10029 3.28416 6.69935 3.44354L5.11146 4.07343C5.09409 4.08029 5.08036 4.0942 5.07338 4.11151L4.44349 5.6994C4.28413 6.10035 3.71626 6.10027 3.55677 5.6994L2.92591 4.11151C2.91898 4.09441 2.90592 4.08034 2.88881 4.07343L1.30091 3.44354C0.89969 3.28421 0.8997 2.71615 1.30091 2.55682L2.88881 1.92596C2.90595 1.91898 2.91905 1.9051 2.92591 1.88788L3.55677 0.300965ZM18.8781 1.00604C19.5083 1.07017 20.0001 1.60306 20.0001 2.25018C20 2.94038 19.4404 3.50009 18.7501 3.50018L18.6222 3.49335C17.9919 3.42936 17.5003 2.8973 17.5001 2.25018C17.5001 1.55982 18.0597 1.00018 18.7501 1.00018L18.8781 1.00604Z" fill="white"/>
</g>
<defs>
<clipPath id="clip0_685_4461">
<rect width="24" height="24" fill="white"/>
</clipPath>
</defs>
</svg>
