<svg width="12" height="12" viewBox="0 0 12 12" fill="none" xmlns="http://www.w3.org/2000/svg">
<path d="M5.50012 1.50049C5.08592 1.50049 4.75012 1.83627 4.75012 2.25049V9.7505C4.75012 10.1647 5.08592 10.5005 5.50012 10.5005H6.50012C6.91432 10.5005 7.25012 10.1647 7.25012 9.7505V2.25049C7.25012 1.83627 6.91432 1.50049 6.50012 1.50049H5.50012Z" fill="white"/>
<path d="M2.25 6.50073C1.83579 6.50073 1.5 6.83648 1.5 7.25073V9.75073C1.5 10.1649 1.83579 10.5007 2.25 10.5007H3.25C3.66422 10.5007 4 10.1649 4 9.75073V7.25073C4 6.83648 3.66422 6.50073 3.25 6.50073H2.25Z" fill="white"/>
<path d="M7.99988 4.75061C7.99988 4.3364 8.33568 4.00061 8.74988 4.00061H9.74988C10.1641 4.00061 10.4999 4.3364 10.4999 4.75061V9.75062C10.4999 10.1648 10.1641 10.5006 9.74988 10.5006H8.74988C8.33568 10.5006 7.99988 10.1648 7.99988 9.75062V4.75061Z" fill="white"/>
</svg>
