<svg width="12" height="12" viewBox="0 0 12 12" fill="none" xmlns="http://www.w3.org/2000/svg">
<path d="M5.62975 1.09009C5.42045 1.03138 5.19985 1 4.97222 1C3.92272 1 3.0293 1.66488 2.68885 2.59599C1.72161 2.81642 1 3.68137 1 4.71528C1 5.1958 1.15622 5.6402 1.42018 6C1.15622 6.3598 1 6.8042 1 7.2847C1 8.12985 1.48222 8.86155 2.18536 9.2211C2.55785 10.258 3.54947 11 4.71528 11C5.0395 11 5.3507 10.9424 5.63885 10.837C5.62985 10.8047 5.625 10.7707 5.625 10.7356V8.5C5.625 7.80965 5.06535 7.25 4.375 7.25C4.1679 7.25 4 7.0821 4 6.875C4 6.6679 4.1679 6.5 4.375 6.5C4.84798 6.5 5.2826 6.6642 5.625 6.93865V1.14999C5.625 1.1296 5.62665 1.1096 5.62975 1.09009Z" fill="white"/>
<path d="M6.36096 10.837C6.64911 10.9424 6.96031 11 7.28451 11C8.45036 11 9.44196 10.258 9.81446 9.2211C10.5176 8.86155 10.9998 8.12985 10.9998 7.2847C10.9998 6.8042 10.8436 6.3598 10.5796 6C10.8436 5.6402 10.9998 5.1958 10.9998 4.71528C10.9998 3.68137 10.2782 2.81642 9.31096 2.59599C8.97051 1.66488 8.07711 1 7.02761 1C6.79996 1 6.57936 1.03138 6.37006 1.09009C6.37316 1.1096 6.37481 1.1296 6.37481 1.14999V3.50182C6.37581 4.19134 6.93506 4.75 7.62481 4.75C7.83191 4.75 7.99981 4.91789 7.99981 5.125C7.99981 5.3321 7.83191 5.5 7.62481 5.5C7.15186 5.5 6.71721 5.3358 6.37481 5.06135V10.7356C6.37481 10.7707 6.36996 10.8047 6.36096 10.837Z" fill="white"/>
</svg>
