<svg width="12" height="12" viewBox="0 0 12 12" fill="none" xmlns="http://www.w3.org/2000/svg">
<path d="M5.99988 1C5.79278 1 5.62488 1.1679 5.62488 1.375C5.62488 1.5821 5.79278 1.75 5.99988 1.75C8.34708 1.75 10.2499 3.65279 10.2499 6C10.2499 6.2071 10.4178 6.375 10.6249 6.375C10.832 6.375 10.9999 6.2071 10.9999 6C10.9999 3.23857 8.76128 1 5.99988 1Z" fill="white"/>
<path d="M5.99988 2.62488C5.79278 2.62488 5.62488 2.79277 5.62488 2.99988C5.62488 3.20698 5.79278 3.37488 5.99988 3.37488C7.44963 3.37488 8.62488 4.55013 8.62488 5.99988C8.62488 6.20698 8.79278 6.37488 8.99988 6.37488C9.20698 6.37488 9.37488 6.20698 9.37488 5.99988C9.37488 4.13592 7.86383 2.62488 5.99988 2.62488Z" fill="white"/>
<path d="M3.51735 3.48692C2.97513 2.94471 1.96763 2.90866 1.55415 3.7099C1.19988 4.3964 1 5.17536 1 5.99991C1 8.76131 3.23857 10.9999 6 10.9999C6.82455 10.9999 7.6035 10.8 8.29 10.4458C9.09125 10.0323 9.0552 9.02476 8.513 8.48256L6.28035 6.24991L6.76515 5.76506C6.9116 5.61861 6.9116 5.38121 6.76515 5.23476C6.6187 5.08831 6.3813 5.08831 6.23485 5.23476L5.75 5.71956L3.51735 3.48692Z" fill="white"/>
</svg>
