<svg width="14" height="14" viewBox="0 0 14 14" fill="none" xmlns="http://www.w3.org/2000/svg">
<g transform="translate(1.2082 1.75)">
<path id="Subtract" d="M10.2656 0C10.9925 0 11.582 0.589519 11.582 1.31641V7.63379C11.5819 8.36054 10.9924 8.94922 10.2656 8.94922H6.31738V9.73926H9.47559C9.76634 9.73926 10.002 9.97487 10.002 10.2656C10.0018 10.5563 9.76625 10.792 9.47559 10.792H2.10547C1.81495 10.7918 1.57925 10.5562 1.5791 10.2656C1.5791 9.97497 1.81486 9.73943 2.10547 9.73926H5.26465V8.94922H1.31641C0.589733 8.94908 0.000156986 8.36046 0 7.63379V1.31641C0 0.589604 0.589637 0.000138627 1.31641 0H10.2656ZM8.29297 2.28613C8.10154 2.06774 7.76948 2.04523 7.55078 2.23633L3.33887 5.92188C3.12065 6.11338 3.09789 6.44642 3.28906 6.66504C3.48043 6.88321 3.81356 6.90465 4.03223 6.71387L8.24414 3.0293C8.46281 2.83796 8.48403 2.50495 8.29297 2.28613ZM8.16113 4.21094C7.43458 4.21108 6.84508 4.80084 6.84473 5.52734C6.84492 6.25398 7.43448 6.84263 8.16113 6.84277C8.88734 6.84211 9.47637 6.25366 9.47656 5.52734C9.47621 4.80116 8.88724 4.2116 8.16113 4.21094ZM3.42285 2.10547C2.69615 2.10561 2.10655 2.69516 2.10645 3.42188C2.10664 4.14852 2.6962 4.73717 3.42285 4.7373C4.14925 4.73686 4.73809 4.14833 4.73828 3.42188C4.73817 2.69535 4.1493 2.10591 3.42285 2.10547Z" fill="white"/>
</g>
</svg>
