<svg preserveAspectRatio="xMidYMid meet" width="202.668" height="224.409" viewBox="0 0 202.668 224.409" fill="none" xmlns="http://www.w3.org/2000/svg">
<path id="Vector" d="M74.6784 213.742C74.6784 188.867 74.6784 173.371 74.6784 167.256C74.6784 161.141 77.7696 154.683 83.9483 147.883C69.5158 145.46 56.615 140.543 46.328 132.828C30.8857 121.246 21.3344 103.358 21.3344 85.6852C21.3344 73.5727 25.8208 62.2463 33.615 52.5892C37.1936 48.1562 30.619 5.99765 42.6678 11.1748C54.7163 16.3518 66.6923 28.2584 79.215 25.0692C87.8299 22.8751 97.0635 21.6852 106.668 21.6852C117.725 21.6852 128.292 23.2626 137.988 26.1336C147.045 28.8153 164.324 16.6643 176.108 11.1748C187.892 5.68517 174.629 46.4458 179.163 51.9087C187.301 61.7124 192.001 73.2868 192.001 85.6852C192.001 103.358 184.109 121.246 168.666 132.828C159.623 139.61 147.991 144.23 135.171 146.894C141.026 154.578 143.954 161.478 143.954 167.593C143.954 173.708 143.954 189.091 143.954 213.743M10.6678 150.835C15.4617 151.421 19.0173 153.625 21.3344 157.448C24.8101 163.181 37.7302 184.448 52.4016 184.448C62.183 184.448 69.6091 184.448 74.6806 184.448" stroke="var(--stroke-0, white)" stroke-opacity="0.4" stroke-width="21.3333" stroke-linecap="round"/>
</svg>
