<svg width="12" height="12" viewBox="0 0 12 12" fill="none" xmlns="http://www.w3.org/2000/svg">
<path fill-rule="evenodd" clip-rule="evenodd" d="M5.31285 1.214C5.73825 0.96838 6.2624 0.96838 6.68785 1.214L9.80145 3.01165C10.2269 3.25727 10.4889 3.7112 10.4889 4.20244V7.79775C10.4889 8.28895 10.2269 8.7429 9.80145 8.9885L6.68785 10.7861C6.2624 11.0318 5.73825 11.0318 5.31285 10.7861L2.19922 8.9885C1.77379 8.7429 1.51172 8.28895 1.51172 7.79775V4.20244C1.51172 3.7112 1.77379 3.25727 2.19922 3.01165L5.31285 1.214ZM4.87536 6.00005C4.87536 5.37875 5.37905 4.87506 6.00035 4.87506C6.6217 4.87506 7.12535 5.37875 7.12535 6.00005C7.12535 6.6214 6.6217 7.12505 6.00035 7.12505C5.37905 7.12505 4.87536 6.6214 4.87536 6.00005Z" fill="white"/>
</svg>
