<svg width="14" height="14" viewBox="0 0 14 14" fill="none" xmlns="http://www.w3.org/2000/svg">
<g transform="translate(1.68 0.9548)">
<path id="Vector" d="M6.384 1.064H2.23703C1.92004 1.064 1.64711 1.28774 1.58495 1.59858L1.2454 3.29633C1.19567 3.545 0.977325 3.724 0.723731 3.724H0.532C0.238185 3.724 0 3.96219 0 4.256C0 4.54982 0.238184 4.788 0.532 4.788H1.12186H9.51812H10.108C10.4018 4.788 10.64 4.54982 10.64 4.256C10.64 3.96219 10.4018 3.724 10.108 3.724H9.91627C9.66268 3.724 9.44434 3.545 9.3946 3.29633L9.05507 1.59858C8.99288 1.28774 8.71996 1.064 8.40294 1.064H7.448V0.532C7.448 0.238185 7.20982 0 6.916 0C6.62219 0 6.384 0.238184 6.384 0.532V1.064ZM9.32696 6.44498C9.36341 6.1291 9.11645 5.852 8.79847 5.852H1.84154C1.52356 5.852 1.2766 6.1291 1.31305 6.44498L1.85192 11.1152C1.89064 11.4508 2.17476 11.704 2.51254 11.704H8.12747C8.46524 11.704 8.74938 11.4508 8.78806 11.1152L9.32696 6.44498Z" fill="white"/>
</g>
</svg>
